# xmcd CD database file
#
# Track frame offsets:
#	150
#	10552
#	24065
#	45931
#	64726
#	83294
#	101288
#	116618
#	142473
#	156123
#	172079
#	190279
#	216429
#	229526
#	254956
#	274918
#	294459
#	316965
#
# Disc length: 4479 seconds
#
# Revision: 0
# Processed by: cddbd v1.4PL0 Copyright (c) Steve Scherf et al.
# Submitted via: CDex 1.50
#
DISCID=f7117d12
DTITLE=Many Artists - the very best of Smooth Jazz Disk 2
DYEAR=2003
DGENRE=Jazz
TTITLE0=What a Wonderful World
TTITLE1=Exactly Like You
TTITLE2=Happy Go Luck Local
TTITLE3=Just to be Loved
TTITLE4=What Are You Doing the Rest of Your Life?
TTITLE5=Sweet Thing
TTITLE6=Move On Up
TTITLE7=The Hipster
TTITLE8=Corenvado
TTITLE9=Every Time We Say Goodbye
TTITLE10=Every Little Thing She Does is Magic
TTITLE11=Desafinado
TTITLE12=Wave
TTITLE13=One Less Bell to Answer
TTITLE14=Tourist in Paradise
TTITLE15=My One Temptation
TTITLE16=Early A.M. Attitude
TTITLE17=Until Tonight
EXTD=YEAR: 2003
EXTT0=
EXTT1=
EXTT2=
EXTT3=
EXTT4=
EXTT5=
EXTT6=
EXTT7=
EXTT8=
EXTT9=
EXTT10=
EXTT11=
EXTT12=
EXTT13=
EXTT14=
EXTT15=
EXTT16=
EXTT17=
PLAYORDER=
